<svg width="400" height="400" viewBox="0 0 400 400" fill="none" xmlns="http://www.w3.org/2000/svg">
<path fill-rule="evenodd" clip-rule="evenodd" d="M114.303 135.373L200.443 92.3032L286.584 135.373L200.443 178.443L114.303 135.373Z" fill="#F0F8FF"/>
<path fill-rule="evenodd" clip-rule="evenodd" d="M114.303 135.373L200.443 92.3032L286.584 135.373L200.443 178.443L114.303 135.373Z" stroke="#0068A2" stroke-width="2.00315" stroke-linejoin="round"/>
<path fill-rule="evenodd" clip-rule="evenodd" d="M28.1629 92.3032L114.303 49.2331L200.443 92.3032L114.303 135.373L28.1629 92.3032Z" fill="#F0F8FF"/>
<path fill-rule="evenodd" clip-rule="evenodd" d="M28.1629 92.3032L114.303 49.2331L200.443 92.3032L114.303 135.373L28.1629 92.3032Z" stroke="#0068A2" stroke-width="2.00315" stroke-linejoin="round"/>
<path fill-rule="evenodd" clip-rule="evenodd" d="M286.584 135.373V243.049L372.724 199.978V92.3032L286.584 135.373Z" fill="#F0F8FF"/>
<path fill-rule="evenodd" clip-rule="evenodd" d="M286.584 135.373V243.049L372.724 199.978V92.3032L286.584 135.373Z" stroke="#0068A2" stroke-width="2.00315" stroke-linejoin="round"/>
<path fill-rule="evenodd" clip-rule="evenodd" d="M286.584 243.049V350.724L372.724 307.654V199.978L286.584 243.049Z" fill="#F0F8FF"/>
<path fill-rule="evenodd" clip-rule="evenodd" d="M286.584 243.049V350.724L372.724 307.654V199.978L286.584 243.049Z" stroke="#0068A2" stroke-width="2.00315" stroke-linejoin="round"/>
<path fill-rule="evenodd" clip-rule="evenodd" d="M200.443 178.443V286.119L286.584 243.049V135.373L200.443 178.443Z" fill="#F0F8FF"/>
<path fill-rule="evenodd" clip-rule="evenodd" d="M200.443 178.443V286.119L286.584 243.049V135.373L200.443 178.443Z" stroke="#0068A2" stroke-width="2.00315" stroke-linejoin="round"/>
<path fill-rule="evenodd" clip-rule="evenodd" d="M200.443 286.119V393.794L286.584 350.724V243.049L200.443 286.119Z" fill="#F0F8FF"/>
<path fill-rule="evenodd" clip-rule="evenodd" d="M200.443 286.119V393.794L286.584 350.724V243.049L200.443 286.119Z" stroke="#0068A2" stroke-width="2.00315" stroke-linejoin="round"/>
<path fill-rule="evenodd" clip-rule="evenodd" d="M200.443 92.3032L286.584 49.2331L372.724 92.3032L286.584 135.373L200.443 92.3032Z" fill="#F0F8FF"/>
<path fill-rule="evenodd" clip-rule="evenodd" d="M200.443 92.3032L286.584 49.2331L372.724 92.3032L286.584 135.373L200.443 92.3032Z" stroke="#0068A2" stroke-width="2.00315" stroke-linejoin="round"/>
<path fill-rule="evenodd" clip-rule="evenodd" d="M114.303 49.233L200.443 6.1629L286.584 49.233L200.443 92.3032L114.303 49.233Z" fill="#F0F8FF"/>
<path fill-rule="evenodd" clip-rule="evenodd" d="M114.303 49.233L200.443 6.1629L286.584 49.233L200.443 92.3032L114.303 49.233Z" stroke="#0068A2" stroke-width="2.00315" stroke-linejoin="round"/>
<path fill-rule="evenodd" clip-rule="evenodd" d="M114.303 350.724V243.049L200.443 286.119V393.794L114.303 350.724Z" fill="#F0F8FF"/>
<path fill-rule="evenodd" clip-rule="evenodd" d="M114.303 350.724V243.049L200.443 286.119V393.794L114.303 350.724Z" stroke="#0068A2" stroke-width="2.00315" stroke-linejoin="round"/>
<path fill-rule="evenodd" clip-rule="evenodd" d="M114.303 243.049V135.373L200.443 178.443V286.119L114.303 243.049Z" fill="#F0F8FF"/>
<path fill-rule="evenodd" clip-rule="evenodd" d="M114.303 243.049V135.373L200.443 178.443V286.119L114.303 243.049Z" stroke="#0068A2" stroke-width="2.00315" stroke-linejoin="round"/>
<path fill-rule="evenodd" clip-rule="evenodd" d="M28.1629 307.654V199.978L114.303 243.049V350.724L28.1629 307.654Z" fill="#F0F8FF"/>
<path fill-rule="evenodd" clip-rule="evenodd" d="M28.1629 307.654V199.978L114.303 243.049V350.724L28.1629 307.654Z" stroke="#0068A2" stroke-width="2.00315" stroke-linejoin="round"/>
<path fill-rule="evenodd" clip-rule="evenodd" d="M28.1629 199.978V92.3032L114.303 135.373V243.049L28.1629 199.978Z" fill="#F0F8FF"/>
<path fill-rule="evenodd" clip-rule="evenodd" d="M28.1629 199.978V92.3032L114.303 135.373V243.049L28.1629 199.978Z" stroke="#0068A2" stroke-width="2.00315" stroke-linejoin="round"/>
<path fill-rule="evenodd" clip-rule="evenodd" d="M114.303 135.373V350.724L28.1629 307.611V199.978L97.0751 234.435V126.716L114.303 135.373ZM97.0751 251.663L45.3909 225.821V298.997L97.0751 324.839V251.663Z" fill="#0068A2"/>
<path fill-rule="evenodd" clip-rule="evenodd" d="M329.654 131.066V113.838L372.724 92.3032V199.978L329.654 221.514V204.285L355.496 191.364V161.215L329.654 174.136V156.908L355.496 143.987V118.145L329.654 131.066Z" fill="#0068A2"/>
<path fill-rule="evenodd" clip-rule="evenodd" d="M200.443 393.794V178.443L286.584 135.373V243.049L217.671 277.505V385.18L200.443 393.794ZM217.671 260.277L269.356 234.435V161.215L217.671 187.057V260.277Z" fill="#0068A2"/>
</svg>
